<svg xmlns="http://www.w3.org/2000/svg" width="16" height="16" viewBox="0 0 16 16">
  <path fill="#09181F" fill-rule="evenodd" d="M13.192,12.951 C12.801,13.342 12.168,13.342 11.778,12.951 L8.243,9.415 L4.707,12.95 C4.316,13.341 3.683,13.341 3.293,12.95 C2.902,12.559 2.902,11.926 3.293,11.536 L6.828,8 L3.293,4.466 C2.902,4.075 2.902,3.442 3.293,3.052 C3.684,2.661 4.317,2.661 4.707,3.052 L8.243,6.588 L11.778,3.052 C12.169,2.661 12.802,2.661 13.192,3.052 C13.582,3.443 13.582,4.076 13.192,4.466 L9.657,8.001 L13.193,11.537 C13.583,11.927 13.583,12.56 13.192,12.951 L13.192,12.951 Z"/>
</svg>
